#!OML:ASF E:\VariousWalksJay\Project 1\Capture day 1\Session 1\Actor2.ASF
:FULLY-SPECIFIED
:DEGREES
672
root 2.85874 15.9984 -2.33098 181.466 -55.1523 -171.418
lowerback 11.4593 0.48855 9.59971
upperback 8.79438 0.76379 -2.44102
thorax 3.16686 0.639624 -8.1003
lowerneck -1.56696 8.05683 3.69775
upperneck -3.81913 10.6608 -0.227565
head -0.706928 5.24787 -0.660991
rclavicle 6.0033e-014 -2.06736e-014
rhumerus -62.83 13.8699 -120.96
rradius 57.2759
rwrist 22.6899
rhand -2.25451 9.9367
rfingers 7.12502
rthumb 23.4293 -18.6569
lclavicle 6.0033e-014 -2.06736e-014
lhumerus -72.5231 -29.9149 132.172
lradius 54.926
lwrist -3.55082
lhand -7.04991 -43.2575
lfingers 7.12502
lthumb 18.8228 -14.1482
rfemur -52.9014 4.49384 18.7032
rtibia 53.8595
rfoot -6.86084 -2.56016
rtoes -6.69183
lfemur -15.5408 14.506 3.56858
ltibia 83.735
lfoot -15.1621 7.60228
ltoes -7.6968
673
root 2.82868 16.1038 -2.46873 180.267 -56.3537 -170.714
lowerback 11.3815 0.49305 9.91324
upperback 8.76589 0.800704 -2.14696
thorax 3.19203 0.669598 -7.96208
lowerneck -1.77268 7.91382 3.74388
upperneck -3.09671 10.4573 -0.106758
head -0.459253 5.1591 -0.602127
rclavicle 4.85035e-014 -3.18055e-015
rhumerus -63.2867 13.8832 -120.837
rradius 57.618
rwrist 21.6713
rhand -2.07824 9.87912
rfingers 7.12502
rthumb 23.5983 -18.6928
lclavicle 4.85035e-014 -3.18055e-015
lhumerus -72.3324 -29.2664 132.096
lradius 54.9263
lwrist -2.67279
lhand -5.83024 -43.1471
lfingers 7.12502
lthumb 19.9955 -14.1559
rfemur -51.2266 4.16172 19.1746
rtibia 53.169
rfoot -6.80601 -2.80031
rtoes -7.2199
lfemur -17.891 15.4932 3.85517
ltibia 87.5455
lfoot -15.6577 6.35548
ltoes -7.95422
674
root 2.80303 16.2089 -2.60068 178.901 -57.5387 -169.834
lowerback 11.3389 0.497515 10.263
upperback 8.72558 0.842644 -1.83748
thorax 3.18805 0.700674 -7.82885
lowerneck -1.97768 7.75557 3.77379
upperneck -2.38536 10.232 0.0476053
head -0.219651 5.05883 -0.533668
rclavicle -1.45113e-014 4.85035e-014
rhumerus -63.7322 13.8674 -120.702
rradius 57.95
rwrist 20.6674
rhand -2.04308 9.68202
rfingers 7.12502
rthumb 23.6321 -18.8856
lclavicle -1.45113e-014 4.85035e-014
lhumerus -72.1122 -28.6351 131.969
lradius 54.9367
lwrist -1.90456
lhand -4.64716 -43.012
lfingers 7.12502
lthumb 21.1324 -14.1437
rfemur -49.5738 3.92897 19.62
rtibia 52.4388
rfoot -6.64664 -2.92784
rtoes -7.92289
lfemur -20.2902 16.5718 4.09462
ltibia 91.1534
lfoot -16.0836 4.85353
ltoes -8.53542
675
root 2.78084 16.3129 -2.72609 177.459 -58.6985 -168.877
lowerback 11.3212 0.50489 10.6173
upperback 8.67314 0.891139 -1.5373
thorax 3.15957 0.733191 -7.70919
lowerneck -2.17122 7.5804 3.78784
upperneck -1.69692 9.98291 0.232448
head 0.00790605 4.94621 -0.457523
rclavicle -2.36554e-014 2.46493e-014
rhumerus -64.1596 13.8395 -120.581
rradius 58.2552
rwrist 19.6673
rhand -2.1176 9.382
rfingers 7.12502
rthumb 23.5606 -19.1948
lclavicle -2.36554e-014 2.46493e-014
lhumerus -71.8971 -28.0646 131.834
lradius 54.9538
lwrist -1.21527
lhand -3.50687 -42.8499
lfingers 7.12502
lthumb 22.2274 -14.108
rfemur -47.9658 3.7806 19.9773
rtibia 51.6856
rfoot -6.38677 -2.91435
rtoes -8.79982
lfemur -22.7358 17.7188 4.17188
ltibia 94.5157
lfoot -16.4708 3.20933
ltoes -9.39399
676
root 2.76185 16.4146 -2.84609 175.915 -59.8408 -167.794
lowerback 11.3099 0.51143 11
upperback 8.60522 0.942606 -1.24418
thorax 3.1135 0.766918 -7.61369
lowerneck -2.34871 7.38876 3.78679
upperneck -1.03295 9.71051 0.450306
head 0.223421 4.82167 -0.372945
rclavicle -8.18993e-014 7.15625e-015
rhumerus -64.5633 13.8119 -120.49
rradius 58.5196
rwrist 18.6622
rhand -2.20868 9.06981
rfingers 7.12502
rthumb 23.4732 -19.5182
lclavicle -8.18993e-014 7.15625e-015
lhumerus -71.7275 -27.5967 131.749
lradius 54.9573
lwrist -0.647183
lhand -2.47904 -42.6623
lfingers 7.12502
lthumb 23.2139 -14.0413
rfemur -46.4184 3.71786 20.2687
rtibia 50.9214
rfoot -6.04701 -2.76458
rtoes -9.76896
lfemur -25.2391 18.8991 4.08119
ltibia 97.5925
lfoot -16.8402 1.49639
ltoes -10.3937
677
root 2.74581 16.5129 -2.96428 174.121 -60.9585 -166.444
lowerback 11.3038 0.517047 11.4516
upperback 8.53057 0.998183 -0.935764
thorax 3.06205 0.803899 -7.54106
lowerneck -2.50075 7.18133 3.76937
upperneck -0.398017 9.41608 0.696543
head 0.425093 4.68602 -0.280942
rclavicle 5.04913e-014 -4.77083e-015
rhumerus -64.9421 13.7962 -120.441
rradius 58.7378
rwrist 17.6358
rhand -2.26682 8.80264
rfingers 7.12502
rthumb 23.4175 -19.7925
lclavicle 5.04913e-014 -4.77083e-015
lhumerus -71.6056 -27.2503 131.728
lradius 54.9586
lwrist -0.101905
lhand -1.51278 -42.4418
lfingers 7.12502
lthumb 24.1406 -13.9408
rfemur -44.8991 3.77267 20.5752
rtibia 50.1521
rfoot -5.66114 -2.52609
rtoes -10.7665
lfemur -27.7673 20.0829 3.90459
ltibia 100.344
lfoot -17.1974 -0.237821
ltoes -11.5416
678
root 2.73056 16.6085 -3.08088 172.103 -62.0788 -164.872
lowerback 11.2917 0.511179 11.9598
upperback 8.45317 1.04175 -0.628012
thorax 3.01232 0.83651 -7.49982
lowerneck -2.63659 6.95839 3.74511
upperneck 0.231276 9.09855 0.970967
head 0.62261 4.53925 -0.181571
rclavicle 1.10325e-014 7.95139e-016
rhumerus -65.295 13.7859 -120.439
rradius 58.9084
rwrist 16.5836
rhand -2.28195 8.61616
rfingers 7.12502
rthumb 23.4029 -19.9808
lclavicle 1.10325e-014 7.95139e-016
lhumerus -71.5617 -27.0366 131.806
lradius 54.9593
lwrist 0.368097
lhand -0.674064 -42.1772
lfingers 7.12502
lthumb 24.9446 -13.7852
rfemur -43.3779 3.88615 20.8699
rtibia 49.3701
rfoot -5.2488 -2.18426
rtoes -11.9128
lfemur -30.3039 21.1636 3.55038
ltibia 102.724
lfoot -17.5538 -1.89805
ltoes -12.7896
679
root 2.71395 16.7026 -3.19485 169.975 -63.2369 -163.208
lowerback 11.2468 0.48648 12.465
upperback 8.37977 1.05545 -0.336896
thorax 2.97915 0.855058 -7.47119
lowerneck -2.76334 6.72554 3.70776
upperneck 0.868053 8.76501 1.26071
head 0.822076 4.38529 -0.076606
rclavicle -2.39536e-014 -6.55989e-015
rhumerus -65.6268 13.7935 -120.468
rradius 59.04
rwrist 15.5006
rhand -2.27753 8.48282
rfingers 7.12502
rthumb 23.4072 -20.1136
lclavicle -2.39536e-014 -6.55989e-015
lhumerus -71.5841 -26.95 131.996
lradius 54.9555
lwrist 0.754998
lhand 0.0170883 -41.8729
lfingers 7.12502
lthumb 25.6067 -13.5745
rfemur -41.8389 3.99539 21.0784
rtibia 48.5635
rfoot -4.84263 -1.72386
rtoes -13.0493
lfemur -32.8443 22.0053 2.86769
ltibia 104.693
lfoot -17.9146 -3.37872
ltoes -14.0873
680
root 2.69537 16.795 -3.30835 167.564 -64.4224 -161.302
lowerback 11.1879 0.436782 13.0009
upperback 8.32099 1.03275 -0.0417047
thorax 2.9639 0.856951 -7.45146
lowerneck -2.88371 6.48865 3.66428
upperneck 1.52356 8.42258 1.55673
head 1.02866 4.22789 0.0309391
rclavicle 3.11098e-014 3.91606e-014
rhumerus -65.9431 13.8171 -120.521
rradius 59.1431
rwrist 14.3885
rhand -2.26103 8.37911
rfingers 7.12502
rthumb 23.423 -20.2153
lclavicle 3.11098e-014 3.91606e-014
lhumerus -71.6687 -26.9682 132.292
lradius 54.9532
lwrist 1.04414
lhand 0.550912 -41.5366
lfingers 7.12502
lthumb 26.1179 -13.3127
rfemur -40.217 4.1203 21.2782
rtibia 47.7153
rfoot -4.47122 -1.18465
rtoes -14.2365
lfemur -35.3185 22.5555 1.97487
ltibia 106.246
lfoot -18.2741 -4.70511
ltoes -15.3858
681
root 2.67427 16.8856 -3.42069 164.922 -65.6477 -159.204
lowerback 11.103 0.359687 13.5324
upperback 8.27536 0.966618 0.245535
thorax 2.96776 0.838116 -7.43305
lowerneck -3.0109 6.25048 3.60259
upperneck 2.2107 8.07419 1.86127
head 1.24845 4.06877 0.144677
rclavicle -2.48481e-015 -1.22253e-014
rhumerus -66.2446 13.8501 -120.582
rradius 59.2323
rwrist 13.2483
rhand -2.20785 8.33339
rfingers 7.12502
rthumb 23.474 -20.2545
lclavicle -2.48481e-015 -1.22253e-014
lhumerus -71.7995 -27.0649 132.669
lradius 54.9564
lwrist 1.23457
lhand 0.940758 -41.1768
lfingers 7.12502
lthumb 26.4911 -13.0087
rfemur -38.5156 4.24216 21.4306
rtibia 46.8166
rfoot -4.14871 -0.574185
rtoes -15.5121
lfemur -37.7204 22.7543 0.831857
ltibia 107.397
lfoot -18.6241 -5.82803
ltoes -16.6963
682
root 2.64981 16.9747 -3.53166 162.157 -66.9369 -157.042
lowerback 10.9857 0.256577 13.978
upperback 8.24635 0.851726 0.509349
thorax 2.9919 0.793716 -7.38659
lowerneck -3.14941 6.01334 3.53332
upperneck 2.93504 7.72221 2.16143
head 1.4856 3.90912 0.259543
rclavicle 6.55989e-015 -3.47873e-015
rhumerus -66.539 13.8903 -120.643
rradius 59.3195
rwrist 12.1085
rhand -2.20748 8.20775
rfingers 7.12502
rthumb 23.4744 -20.3801
lclavicle 6.55989e-015 -3.47873e-015
lhumerus -71.9708 -27.2088 133.118
lradius 54.9631
lwrist 1.27198
lhand 1.16046 -40.801
lfingers 7.12502
lthumb 26.7014 -12.6647
rfemur -36.7234 4.34256 21.4663
rtibia 45.8638
rfoot -3.89711 0.107204
rtoes -16.8606
lfemur -40.007 22.5436 -0.61127
ltibia 108.174
lfoot -18.9636 -6.69782
ltoes -17.9437
683
root 2.62309 17.0603 -3.64087 159.279 -68.2576 -154.802
lowerback 10.8464 0.14155 14.3343
upperback 8.22251 0.709756 0.750021
thorax 3.02271 0.733607 -7.31243
lowerneck -3.29872 5.77601 3.43548
upperneck 3.69275 7.36565 2.46687
head 1.73806 3.74824 0.38184
rclavicle 6.88292e-015 -3.44394e-014
rhumerus -66.8247 13.9213 -120.682
rradius 59.414
rwrist 10.9786
rhand -2.22396 8.05173
rfingers 7.12502
rthumb 23.4586 -20.5382
lclavicle 6.88292e-015 -3.44394e-014
lhumerus -72.1489 -27.3618 133.581
lradius 54.9807
lwrist 1.27024
lhand 1.34862 -40.4232
lfingers 7.12502
lthumb 26.8815 -12.3145
rfemur -34.8764 4.46053 21.3997
rtibia 44.8682
rfoot -3.73166 0.831714
rtoes -18.2482
lfemur -42.1653 21.9898 -2.26981
ltibia 108.649
lfoot -19.2723 -7.34943
ltoes -19.0509
684
root 2.59529 17.1396 -3.7488 156.191 -69.5776 -152.355
lowerback 10.682 0.0218687 14.6325
upperback 8.19176 0.55391 0.976168
thorax 3.05334 0.664795 -7.22025
lowerneck -3.45521 5.53762 3.32232
upperneck 4.47638 7.00298 2.77307
head 2.00417 3.58515 0.507912
rclavicle -9.41121e-015 4.99446e-014
rhumerus -67.0985 13.9307 -120.694
rradius 59.5223
rwrist 9.87353
rhand -2.23316 7.89727
rfingers 7.12502
rthumb 23.4497 -20.6938
lclavicle -9.41121e-015 4.99446e-014
lhumerus -72.3223 -27.4962 134.027
lradius 55.0103
lwrist 1.26015
lhand 1.55114 -40.0425
lfingers 7.12502
lthumb 27.0752 -11.9638
rfemur -33.02 4.60666 21.2997
rtibia 43.8509
rfoot -3.67064 1.57328
rtoes -19.6444
lfemur -44.2149 21.1842 -4.02025
ltibia 108.91
lfoot -19.541 -7.78113
ltoes -20.1051
